<?xml version="1.0" standalone="no"?>
<!DOCTYPE svg PUBLIC "-//W3C//DTD SVG 20010904//EN"
 "http://www.w3.org/TR/2001/REC-SVG-20010904/DTD/svg10.dtd">
<svg version="1.0" xmlns="http://www.w3.org/2000/svg"
 width="500.000000pt" height="500.000000pt" viewBox="0 0 500.000000 500.000000"
 preserveAspectRatio="xMidYMid meet">
<metadata>
Created by potrace 1.14, written by Peter Selinger 2001-2017
</metadata>
<g transform="translate(0.000000,500.000000) scale(0.100000,-0.100000)"
fill="#000000" stroke="none">
<path d="M0 2500 l0 -2500 2500 0 2500 0 0 2500 0 2500 -2500 0 -2500 0 0
-2500z m1947 1099 c214 -30 348 -112 360 -223 10 -84 -43 -121 -66 -46 -16 54
-107 150 -179 188 -295 157 -630 4 -741 -338 -30 -92 -43 -228 -31 -333 34
-300 206 -506 457 -549 159 -27 353 47 430 164 l28 41 3 244 3 243 55 0 54 0
0 -284 0 -284 -34 -30 c-125 -110 -445 -159 -651 -101 -61 17 -154 66 -213
111 -187 145 -280 425 -226 686 73 357 376 563 751 511z m888 -780 c115 -215
217 -401 226 -413 16 -19 19 -19 33 -6 8 8 98 193 199 410 l185 395 61 3 61 3
0 -646 0 -645 -55 0 -55 0 0 590 c0 492 -2 590 -14 590 -13 0 -108 -194 -332
-677 -49 -106 -91 -193 -94 -193 -3 0 -109 194 -235 431 -127 237 -236 433
-243 436 -7 3 -15 3 -18 0 -5 -5 59 -1028 71 -1129 l6 -48 -56 0 -55 0 0 645
0 645 53 0 53 0 209 -391z"/>
</g>
</svg>
